<svg xmlns="http://www.w3.org/2000/svg" viewBox="0 0 512 512">
  <defs>
    <linearGradient id="bg" x1="0%" y1="0%" x2="100%" y2="100%">
      <stop offset="0%" style="stop-color:#10b981"/>
      <stop offset="100%" style="stop-color:#059669"/>
    </linearGradient>
    <linearGradient id="green" x1="0%" y1="0%" x2="0%" y2="100%">
      <stop offset="0%" style="stop-color:#d1fae5"/>
      <stop offset="100%" style="stop-color:#a7f3d0"/>
    </linearGradient>
    <linearGradient id="red" x1="0%" y1="0%" x2="0%" y2="100%">
      <stop offset="0%" style="stop-color:#fca5a5"/>
      <stop offset="100%" style="stop-color:#f87171"/>
    </linearGradient>
  </defs>
  <rect width="512" height="512" rx="96" fill="url(#bg)"/>
  <g opacity="0.12" stroke="white" stroke-width="1">
    <line x1="80" y1="140" x2="432" y2="140"/>
    <line x1="80" y1="210" x2="432" y2="210"/>
    <line x1="80" y1="280" x2="432" y2="280"/>
    <line x1="80" y1="350" x2="432" y2="350"/>
  </g>
  <line x1="130" y1="210" x2="130" y2="340" stroke="url(#red)" stroke-width="3.5" stroke-linecap="round"/>
  <rect x="117" y="240" width="26" height="60" rx="4" fill="url(#red)"/>
  <line x1="200" y1="230" x2="200" y2="360" stroke="url(#red)" stroke-width="3.5" stroke-linecap="round"/>
  <rect x="187" y="260" width="26" height="60" rx="4" fill="url(#red)"/>
  <line x1="270" y1="180" x2="270" y2="320" stroke="url(#green)" stroke-width="3.5" stroke-linecap="round"/>
  <rect x="257" y="210" width="26" height="80" rx="4" fill="url(#green)"/>
  <line x1="340" y1="140" x2="340" y2="260" stroke="url(#green)" stroke-width="3.5" stroke-linecap="round"/>
  <rect x="327" y="160" width="26" height="65" rx="4" fill="url(#green)"/>
  <line x1="410" y1="100" x2="410" y2="220" stroke="url(#green)" stroke-width="3.5" stroke-linecap="round"/>
  <rect x="397" y="120" width="26" height="60" rx="4" fill="url(#green)"/>
  <path d="M 117 270 Q 210 300 270 230 Q 330 170 410 130" stroke="white" stroke-width="4" fill="none" stroke-linecap="round" opacity="0.9"/>
  <circle cx="410" cy="130" r="7" fill="white" opacity="0.5"/>
  <circle cx="410" cy="130" r="3.5" fill="white"/>
  <text x="256" y="455" text-anchor="middle" font-family="system-ui, -apple-system, Helvetica, Arial, sans-serif" font-weight="800" font-size="68" fill="white" letter-spacing="-2">MODUS</text>
</svg>
