<svg viewBox="0 0 1024 1024" xmlns="http://www.w3.org/2000/svg">
  <defs>
    <linearGradient id="appBgGrad" x1="0%" y1="0%" x2="100%" y2="100%">
      <stop offset="0%" style="stop-color:#052e1a;stop-opacity:1" />
      <stop offset="100%" style="stop-color:#0a2e1f;stop-opacity:1" />
    </linearGradient>
    <linearGradient id="appAccentGrad" x1="0%" y1="100%" x2="0%" y2="0%">
      <stop offset="0%" style="stop-color:#10b981;stop-opacity:1" />
      <stop offset="100%" style="stop-color:#6ee7b7;stop-opacity:1" />
    </linearGradient>
    <linearGradient id="chartGrad" x1="0%" y1="100%" x2="0%" y2="0%">
      <stop offset="0%" style="stop-color:#10b981;stop-opacity:0.2" />
      <stop offset="100%" style="stop-color:#34d399;stop-opacity:0.4" />
    </linearGradient>
    <filter id="shadowFilter">
      <feDropShadow dx="0" dy="4" stdDeviation="8" flood-opacity="0.3"/>
    </filter>
  </defs>
  <rect x="0" y="0" width="1024" height="1024" rx="200" fill="url(#appBgGrad)"/>
  <rect x="20" y="20" width="984" height="984" rx="190" fill="none" stroke="#34d399" stroke-width="2" opacity="0.2"/>
  <rect x="80" y="80" width="864" height="740" rx="16" fill="rgba(255,255,255,0.02)" stroke="#10b981" stroke-width="2" opacity="0.3"/>
  <g transform="translate(150, 120)">
    <g opacity="0.1" stroke="#34d399" stroke-width="1">
      <line x1="0" y1="50" x2="720" y2="50"/>
      <line x1="0" y1="130" x2="720" y2="130"/>
      <line x1="0" y1="210" x2="720" y2="210"/>
      <line x1="0" y1="290" x2="720" y2="290"/>
    </g>
    <g>
      <line x1="40" y1="120" x2="40" y2="200" stroke="#10b981" stroke-width="4" stroke-linecap="round"/>
      <rect x="25" y="150" width="30" height="35" fill="#10b981" rx="2"/>
    </g>
    <g>
      <line x1="100" y1="100" x2="100" y2="220" stroke="#ef4444" stroke-width="4" stroke-linecap="round"/>
      <rect x="85" y="140" width="30" height="45" fill="#ef4444" rx="2"/>
    </g>
    <g>
      <line x1="160" y1="130" x2="160" y2="210" stroke="#10b981" stroke-width="4" stroke-linecap="round"/>
      <rect x="145" y="155" width="30" height="40" fill="#10b981" rx="2"/>
    </g>
    <g>
      <line x1="220" y1="60" x2="220" y2="240" stroke="#34d399" stroke-width="4" stroke-linecap="round"/>
      <rect x="205" y="100" width="30" height="80" fill="#34d399" rx="2"/>
    </g>
    <g>
      <line x1="280" y1="20" x2="280" y2="250" stroke="#34d399" stroke-width="4" stroke-linecap="round"/>
      <rect x="265" y="70" width="30" height="100" fill="#34d399" rx="2"/>
    </g>
    <g>
      <line x1="340" y1="80" x2="340" y2="230" stroke="#10b981" stroke-width="4" stroke-linecap="round"/>
      <rect x="325" y="125" width="30" height="60" fill="#10b981" rx="2"/>
    </g>
    <g>
      <line x1="400" y1="40" x2="400" y2="240" stroke="#34d399" stroke-width="4" stroke-linecap="round"/>
      <rect x="385" y="90" width="30" height="90" fill="#34d399" rx="2"/>
    </g>
    <polyline points="40,120 100,100 160,130 220,60 280,20 340,80 400,40" fill="none" stroke="url(#appAccentGrad)" stroke-width="6" stroke-linecap="round" stroke-linejoin="round" filter="url(#shadowFilter)"/>
    <path d="M 40,120 L 100,100 L 160,130 L 220,60 L 280,20 L 340,80 L 400,40 L 400,350 L 40,350 Z" fill="url(#chartGrad)"/>
  </g>
  <text x="512" y="900" font-family="Arial, Helvetica, sans-serif" font-size="96" font-weight="bold" fill="url(#appAccentGrad)" text-anchor="middle" letter-spacing="-2">MODUS</text>
  <line x1="300" y1="940" x2="724" y2="940" stroke="#34d399" stroke-width="6" stroke-linecap="round" opacity="0.6"/>
</svg>
