<svg viewBox="0 0 1200 630" xmlns="http://www.w3.org/2000/svg">
  <defs>
    <linearGradient id="bgGradient" x1="0%" y1="0%" x2="100%" y2="100%">
      <stop offset="0%" style="stop-color:#052e1a;stop-opacity:1" />
      <stop offset="100%" style="stop-color:#0a2e1f;stop-opacity:1" />
    </linearGradient>
    <linearGradient id="accentGradient" x1="0%" y1="0%" x2="0%" y2="100%">
      <stop offset="0%" style="stop-color:#6ee7b7;stop-opacity:1" />
      <stop offset="100%" style="stop-color:#10b981;stop-opacity:1" />
    </linearGradient>
    <linearGradient id="chartGradient" x1="0%" y1="100%" x2="0%" y2="0%">
      <stop offset="0%" style="stop-color:#10b981;stop-opacity:0.1" />
      <stop offset="100%" style="stop-color:#10b981;stop-opacity:0.3" />
    </linearGradient>
  </defs>
  <rect width="1200" height="630" fill="url(#bgGradient)"/>
  <circle cx="100" cy="100" r="150" fill="#10b981" opacity="0.05"/>
  <circle cx="1100" cy="530" r="200" fill="#34d399" opacity="0.03"/>
  <g transform="translate(850, 150)">
    <rect x="0" y="0" width="280" height="280" fill="rgba(255,255,255,0.02)" rx="8" stroke="#10b981" stroke-width="1" opacity="0.3"/>
    <line x1="20" y1="60" x2="260" y2="60" stroke="#34d399" stroke-width="1" opacity="0.15"/>
    <line x1="20" y1="120" x2="260" y2="120" stroke="#34d399" stroke-width="1" opacity="0.15"/>
    <line x1="20" y1="180" x2="260" y2="180" stroke="#34d399" stroke-width="1" opacity="0.15"/>
    <rect x="30" y="100" width="20" height="40" fill="none" stroke="#10b981" stroke-width="2"/>
    <rect x="32" y="110" width="16" height="25" fill="#10b981"/>
    <line x1="40" y1="100" x2="40" y2="85" stroke="#10b981" stroke-width="2"/>
    <line x1="40" y1="150" x2="40" y2="160" stroke="#10b981" stroke-width="2"/>
    <rect x="70" y="80" width="20" height="60" fill="none" stroke="#ef4444" stroke-width="2"/>
    <rect x="72" y="110" width="16" height="25" fill="#ef4444"/>
    <line x1="80" y1="80" x2="80" y2="65" stroke="#ef4444" stroke-width="2"/>
    <line x1="80" y1="170" x2="80" y2="185" stroke="#ef4444" stroke-width="2"/>
    <rect x="110" y="90" width="20" height="50" fill="none" stroke="#10b981" stroke-width="2"/>
    <rect x="112" y="105" width="16" height="30" fill="#10b981"/>
    <line x1="120" y1="90" x2="120" y2="70" stroke="#10b981" stroke-width="2"/>
    <line x1="120" y1="160" x2="120" y2="175" stroke="#10b981" stroke-width="2"/>
    <rect x="150" y="60" width="20" height="80" fill="none" stroke="#10b981" stroke-width="2"/>
    <rect x="152" y="80" width="16" height="45" fill="#10b981"/>
    <line x1="160" y1="60" x2="160" y2="40" stroke="#10b981" stroke-width="2"/>
    <line x1="160" y1="160" x2="160" y2="180" stroke="#10b981" stroke-width="2"/>
    <rect x="190" y="40" width="20" height="100" fill="none" stroke="#34d399" stroke-width="2"/>
    <rect x="192" y="65" width="16" height="50" fill="#34d399"/>
    <line x1="200" y1="40" x2="200" y2="15" stroke="#34d399" stroke-width="2"/>
    <line x1="200" y1="165" x2="200" y2="190" stroke="#34d399" stroke-width="2"/>
    <polyline points="40,130 80,125 120,115 160,80 200,35" fill="none" stroke="url(#accentGradient)" stroke-width="3" stroke-linecap="round" stroke-linejoin="round"/>
    <path d="M 40,130 L 80,125 L 120,115 L 160,80 L 200,35 L 200,160 L 40,160 Z" fill="url(#chartGradient)"/>
  </g>
  <text x="120" y="280" font-family="Arial, sans-serif" font-size="120" font-weight="bold" fill="url(#accentGradient)" letter-spacing="-2">MODUS</text>
  <text x="120" y="360" font-family="Arial, sans-serif" font-size="32" fill="#a7f3d0" letter-spacing="0.5">Professional Trading Analytics</text>
  <line x1="120" y1="390" x2="320" y2="390" stroke="#10b981" stroke-width="4" stroke-linecap="round"/>
</svg>
