<svg viewBox="0 0 128 128" xmlns="http://www.w3.org/2000/svg">
  <rect width="128" height="128" rx="24" fill="#2a1708"/>
  <circle cx="40" cy="38" r="8" fill="none" stroke="#f59e0b" stroke-width="3" stroke-linecap="round"/>
  <path d="M 32 50 Q 32 48 40 48 Q 48 48 48 50 L 48 60 Q 48 62 46 62 L 34 62 Q 32 62 32 60 Z" fill="none" stroke="#f59e0b" stroke-width="3" stroke-linecap="round" stroke-linejoin="round"/>
  <circle cx="64" cy="32" r="9" fill="none" stroke="#fbbf24" stroke-width="3" stroke-linecap="round"/>
  <path d="M 54 46 Q 54 44 64 44 Q 74 44 74 46 L 74 58 Q 74 60 72 60 L 56 60 Q 54 60 54 58 Z" fill="none" stroke="#fbbf24" stroke-width="3" stroke-linecap="round" stroke-linejoin="round"/>
  <circle cx="88" cy="38" r="8" fill="none" stroke="#f59e0b" stroke-width="3" stroke-linecap="round"/>
  <path d="M 80 50 Q 80 48 88 48 Q 96 48 96 50 L 96 60 Q 96 62 94 62 L 82 62 Q 80 62 80 60 Z" fill="none" stroke="#f59e0b" stroke-width="3" stroke-linecap="round" stroke-linejoin="round"/>
  <path d="M 38 72 Q 38 68 42 68 L 58 68 Q 62 68 62 72 L 62 84 L 50 84 L 46 90 L 46 84 L 42 84 Q 38 84 38 80 Z" fill="none" stroke="#fcd34d" stroke-width="2.5" stroke-linecap="round" stroke-linejoin="round"/>
  <path d="M 68 76 Q 68 73 71 73 L 84 73 Q 87 73 87 76 L 87 88 L 78 88 L 75 93 L 75 88 L 71 88 Q 68 88 68 85 Z" fill="none" stroke="#fcd34d" stroke-width="2.5" stroke-linecap="round" stroke-linejoin="round"/>
</svg>
